<?xml version="1.0" encoding="UTF-8" standalone="no"?>
<svg width="20px" height="20px" viewBox="0 0 20 20" version="1.1" xmlns="http://www.w3.org/2000/svg" xmlns:xlink="http://www.w3.org/1999/xlink">
    <!-- Generator: Sketch 39.1 (31720) - http://www.bohemiancoding.com/sketch -->
    <title>Shape</title>
    <desc>Created with Sketch.</desc>
    <defs></defs>
    <g id="Page-10" stroke="none" stroke-width="1" fill="none" fill-rule="evenodd">
        <g id="Group-6" transform="translate(-881.000000, -195.000000)" fill="#6D7480">
            <g id="Group-5-Copy" transform="translate(506.000000, 88.000000)">
                <g id="Group-3" transform="translate(19.000000, 107.000000)">
                    <path d="M366,0 C360.48,0 356,4.48 356,10 C356,15.52 360.48,20 366,20 C371.52,20 376,15.52 376,10 C376,4.48 371.52,0 366,0 L366,0 Z M367,15 L365,15 L365,9 L367,9 L367,15 L367,15 Z M367,7 L365,7 L365,5 L367,5 L367,7 L367,7 Z" id="Shape"></path>
                </g>
            </g>
        </g>
    </g>
</svg>