<?xml version="1.0" encoding="UTF-8" standalone="no"?>
<svg width="16px" height="20px" viewBox="0 0 16 20" version="1.1" xmlns="http://www.w3.org/2000/svg" xmlns:xlink="http://www.w3.org/1999/xlink">
    <!-- Generator: Sketch 39.1 (31720) - http://www.bohemiancoding.com/sketch -->
    <title>Shape</title>
    <desc>Created with Sketch.</desc>
    <defs></defs>
    <g id="Page-10" stroke="none" stroke-width="1" fill="none" fill-rule="evenodd">
        <g id="Group-6" transform="translate(-525.000000, -197.000000)" fill="#6D7480">
            <g id="Group-5-Copy" transform="translate(506.000000, 88.000000)">
                <g id="Group-3" transform="translate(19.000000, 107.000000)">
                    <path d="M10,2 L2,2 C0.9,2 0.01,2.9 0.01,4 L0,20 C0,21.1 0.89,22 1.99,22 L14,22 C15.1,22 16,21.1 16,20 L16,8 L10,2 L10,2 Z M12,18 L4,18 L4,16 L12,16 L12,18 L12,18 Z M12,14 L4,14 L4,12 L12,12 L12,14 L12,14 Z M9,9 L9,3.5 L14.5,9 L9,9 L9,9 Z" id="Shape"></path>
                </g>
            </g>
        </g>
    </g>
</svg>